# xmcd
#
# Track frame offsets: 
#        150
#        15232
#        37546
#        48483
#        75349
#        91923
#        116361
#        133875
#        149010
#
# Disc length: 2178 seconds
#
# Revision: 0
# Processed by: cddbd v1.5.2PL0 Copyright (c) Steve Scherf et al.
# Submitted via: ExactAudioCopyFreeDBPlugin 1.0
#
DISCID=64088009
DTITLE=Al Wood and The Woodsmen - Hooka Train
DYEAR=2017
DGENRE=blues
TTITLE0=Lately Things
TTITLE1=Mole Hill Mountain Blues
TTITLE2=Hooka Train
TTITLE3=Death Defying Leaps
TTITLE4=Bluebird
TTITLE5=Juggler's Blues
TTITLE6=Certain Ways
TTITLE7=Stick Around (Another Day)
TTITLE8=Worryin' Days Are Done
EXTD=
EXTT0=
EXTT1=
EXTT2=
EXTT3=
EXTT4=
EXTT5=
EXTT6=
EXTT7=
EXTT8=
PLAYORDER=
